<svg width="220" height="55" viewBox="0 0 220 55" fill="none" xmlns="http://www.w3.org/2000/svg">
<path d="M104.96 32.4851C102.839 32.4851 100.912 32.0476 99.1813 31.1726C97.4745 30.2733 96.1212 28.9243 95.1215 27.1257C94.1218 25.3027 93.622 23.0666 93.622 20.4173C93.622 17.9624 94.1584 15.7992 95.2313 13.9276C96.3285 12.0561 97.8402 10.6099 99.7665 9.58903C101.693 8.54388 103.899 8.0213 106.386 8.0213C107.606 8.0213 108.813 8.2036 110.007 8.56818C111.202 8.93277 112.19 9.50396 112.97 10.2817C113.75 11.0595 114.14 12.0196 114.14 13.162C114.14 14.2314 113.823 15.1551 113.189 15.9328C112.555 16.7106 111.714 17.0995 110.666 17.0995C110.154 17.0995 109.654 16.978 109.166 16.7349C108.703 16.4919 108.459 16.1759 108.435 15.787C108.435 15.7627 108.593 15.629 108.91 15.386C109.251 15.1429 109.556 14.8148 109.824 14.4016C110.117 13.9884 110.263 13.4901 110.263 12.9068C110.263 11.8859 109.861 11.0595 109.056 10.4276C108.252 9.79563 107.215 9.47965 105.948 9.47965C104.436 9.47965 103.07 9.905 101.851 10.7557C100.632 11.5821 99.6689 12.8095 98.9618 14.438C98.2547 16.0422 97.9012 17.9624 97.9012 20.1985C97.9012 22.3617 98.2425 24.2333 98.9253 25.8132C99.6324 27.393 100.608 28.6083 101.851 29.459C103.119 30.2854 104.582 30.6986 106.24 30.6986C107.02 30.6986 107.703 30.6622 108.288 30.5892C108.873 30.492 109.507 30.334 110.19 30.1153V26.3965C110.19 25.5458 110.154 24.9503 110.08 24.61C110.032 24.2697 109.837 24.0145 109.495 23.8444C109.178 23.6742 108.63 23.5892 107.849 23.5892C107.581 23.5892 107.386 23.5527 107.264 23.4798C107.142 23.3826 107.069 23.1638 107.045 22.8235C107.045 22.6048 107.106 22.4225 107.228 22.2767C107.374 22.1065 107.569 22.0214 107.813 22.0214C109.349 22.0944 110.69 22.1308 111.836 22.1308C112.933 22.1308 114.25 22.0944 115.786 22.0214C116.005 22.0214 116.176 22.1065 116.298 22.2767C116.42 22.4225 116.481 22.6048 116.481 22.8235C116.457 23.1638 116.383 23.3826 116.261 23.4798C116.14 23.5527 115.945 23.5892 115.676 23.5892C114.945 23.5892 114.421 23.6864 114.104 23.8808C113.787 24.0753 113.592 24.3548 113.518 24.7194C113.445 25.0597 113.409 25.6187 113.409 26.3965V30.6986C111.97 31.3792 110.653 31.841 109.459 32.084C108.264 32.3514 106.764 32.4851 104.96 32.4851Z" fill="#F8F8FF"/>
<path d="M119.331 31.8653C119.112 31.8653 118.941 31.7924 118.819 31.6465C118.722 31.4764 118.673 31.282 118.673 31.0632C118.697 30.6986 118.77 30.4799 118.892 30.4069C119.039 30.334 119.27 30.2976 119.587 30.2976C120.294 30.2976 120.819 30.176 121.16 29.933C121.501 29.6656 121.721 29.3496 121.818 28.9851C121.916 28.6205 121.977 28.1222 122.001 27.4903V13.0161C121.977 12.3842 121.916 11.8859 121.818 11.5213C121.721 11.1568 121.501 10.8529 121.16 10.6099C120.819 10.3425 120.294 10.2088 119.587 10.2088H119.368C119.148 10.2088 118.978 10.1724 118.856 10.0994C118.758 10.0022 118.697 9.78347 118.673 9.44319C118.673 9.22444 118.722 9.04215 118.819 8.89631C118.941 8.72617 119.112 8.6411 119.331 8.6411C120.916 8.71402 122.367 8.75048 123.684 8.75048C125.147 8.75048 126.671 8.71402 128.255 8.6411C128.475 8.6411 128.633 8.72617 128.731 8.89631C128.853 9.04215 128.914 9.22444 128.914 9.44319C128.889 9.80778 128.804 10.0265 128.658 10.0994C128.536 10.1724 128.304 10.2088 127.963 10.2088C127.256 10.2088 126.731 10.3425 126.39 10.6099C126.049 10.8529 125.829 11.1689 125.732 11.5578C125.659 11.9224 125.61 12.4085 125.586 13.0161V27.4903C125.61 28.0979 125.659 28.5962 125.732 28.9851C125.829 29.3496 126.049 29.6656 126.39 29.933C126.731 30.176 127.256 30.2976 127.963 30.2976H128.182C128.426 30.2976 128.597 30.3462 128.694 30.4434C128.816 30.5163 128.889 30.7229 128.914 31.0632C128.914 31.282 128.853 31.4764 128.731 31.6465C128.633 31.7924 128.475 31.8653 128.255 31.8653C126.695 31.7924 125.183 31.7559 123.72 31.7559C122.379 31.7559 120.916 31.7924 119.331 31.8653Z" fill="#F8F8FF"/>
<path d="M130.661 31.8653C130.442 31.8653 130.283 31.7924 130.186 31.6465C130.064 31.4764 130.003 31.282 130.003 31.0632C130.027 30.6986 130.101 30.4799 130.223 30.4069C130.344 30.334 130.491 30.2976 130.661 30.2976C130.832 30.2976 130.942 30.2976 130.991 30.2976C131.722 30.2976 132.258 30.1153 132.6 29.7507C132.941 29.3618 133.209 28.9364 133.404 28.4746C133.624 27.9885 133.77 27.6604 133.843 27.4903L140.244 12.3963C140.39 12.0318 140.463 11.7401 140.463 11.5213C140.463 11.0838 140.293 10.7679 139.951 10.5734C139.61 10.379 139.134 10.221 138.525 10.0994C138.11 10.0265 137.854 9.95361 137.757 9.8807C137.659 9.80778 137.611 9.60118 137.611 9.2609C137.611 8.96923 137.684 8.77478 137.83 8.67756C138.001 8.58034 138.257 8.53172 138.598 8.53172C139.817 8.53172 140.78 8.62895 141.487 8.82339C142.219 8.99353 142.853 9.35812 143.389 9.91716C143.926 10.4519 144.426 11.2783 144.889 12.3963L151.033 27.4903C151.399 28.4139 151.753 29.1066 152.094 29.5684C152.435 30.0302 152.947 30.2733 153.63 30.2976H153.85C154.093 30.2976 154.264 30.3462 154.362 30.4434C154.459 30.5163 154.52 30.7229 154.544 31.0632C154.544 31.282 154.483 31.4764 154.362 31.6465C154.264 31.7924 154.106 31.8653 153.886 31.8653C152.326 31.7924 150.985 31.7559 149.863 31.7559C148.4 31.7559 146.888 31.7924 145.328 31.8653C145.108 31.8653 144.938 31.7924 144.816 31.6465C144.718 31.4764 144.669 31.282 144.669 31.0632C144.694 30.7229 144.755 30.5163 144.852 30.4434C144.95 30.3462 145.12 30.2976 145.364 30.2976C146.193 30.2976 146.778 30.2247 147.12 30.0788C147.461 29.9087 147.632 29.617 147.632 29.2038C147.632 28.8878 147.486 28.3167 147.193 27.4903L145.949 24.4642H136.916C136.306 25.9711 135.952 26.8461 135.855 27.0892C135.782 27.3323 135.745 27.4659 135.745 27.4903C135.453 28.4139 135.306 29.0094 135.306 29.2767C135.306 29.6899 135.489 29.9694 135.855 30.1153C136.221 30.2368 136.916 30.2976 137.94 30.2976H138.159C138.403 30.2976 138.574 30.3462 138.671 30.4434C138.769 30.5163 138.83 30.7229 138.854 31.0632C138.854 31.282 138.793 31.4764 138.671 31.6465C138.574 31.7924 138.415 31.8653 138.196 31.8653C136.635 31.7924 135.306 31.7559 134.209 31.7559C133.429 31.7559 132.246 31.7924 130.661 31.8653ZM137.611 22.8965H145.291L141.597 13.5266H141.487L137.611 22.8965Z" fill="#F8F8FF"/>
<path d="M156.583 31.8653C156.364 31.8653 156.193 31.7924 156.071 31.6465C155.973 31.4764 155.925 31.282 155.925 31.0632C155.949 30.6986 156.022 30.4799 156.144 30.4069C156.266 30.334 156.498 30.2976 156.839 30.2976C157.546 30.2976 158.058 30.176 158.375 29.933C158.717 29.6656 158.924 29.3618 158.997 29.0215C159.07 28.6569 159.119 28.1465 159.143 27.4903L159.216 13.0161C159.216 12.287 159.131 11.7401 158.96 11.3755C158.814 10.9866 158.57 10.7071 158.229 10.537C157.887 10.3668 157.4 10.221 156.766 10.0994C156.351 10.0265 156.095 9.95361 155.998 9.8807C155.9 9.80778 155.852 9.60118 155.852 9.2609C155.852 8.96923 155.925 8.77478 156.071 8.67756C156.242 8.58034 156.498 8.53172 156.839 8.53172C158.351 8.53172 159.546 8.6411 160.423 8.85985C161.301 9.0543 162.069 9.41889 162.727 9.95361C163.41 10.4883 164.154 11.3026 164.959 12.3963L174.98 25.5215H175.09L175.016 13.0161C174.992 12.3599 174.943 11.8616 174.87 11.5213C174.797 11.1568 174.59 10.8529 174.248 10.6099C173.931 10.3425 173.419 10.2088 172.712 10.2088H172.493C172.249 10.2088 172.066 10.1724 171.944 10.0994C171.847 10.0022 171.786 9.78347 171.761 9.44319C171.761 9.22444 171.822 9.04215 171.944 8.89631C172.066 8.72617 172.225 8.6411 172.42 8.6411C173.98 8.71402 175.151 8.75048 175.931 8.75048C176.394 8.75048 177.284 8.72617 178.601 8.67756L179.369 8.6411C179.588 8.6411 179.747 8.72617 179.844 8.89631C179.966 9.04215 180.027 9.22444 180.027 9.44319C180.003 9.80778 179.93 10.0265 179.808 10.0994C179.686 10.1724 179.454 10.2088 179.113 10.2088C178.406 10.2088 177.881 10.3425 177.54 10.6099C177.223 10.8529 177.028 11.1568 176.955 11.5213C176.882 11.8616 176.833 12.3599 176.809 13.0161L176.735 31.3913C176.711 31.7073 176.406 31.8653 175.821 31.8653C175.358 31.8653 175.004 31.7073 174.76 31.3913L160.972 13.0161H160.862L160.935 27.4903C160.96 28.1465 161.008 28.6569 161.082 29.0215C161.155 29.3618 161.35 29.6656 161.667 29.933C162.008 30.176 162.532 30.2976 163.24 30.2976H163.459C163.703 30.2976 163.873 30.3462 163.971 30.4434C164.093 30.5163 164.166 30.7229 164.19 31.0632C164.19 31.282 164.13 31.4764 164.008 31.6465C163.91 31.7924 163.752 31.8653 163.532 31.8653C161.972 31.7924 160.789 31.7559 159.984 31.7559C159.497 31.7559 158.643 31.7802 157.424 31.8288L156.583 31.8653Z" fill="#F8F8FF"/>
<path d="M183.537 31.8653C183.317 31.8653 183.147 31.7924 183.025 31.6465C182.927 31.4764 182.878 31.282 182.878 31.0632C182.903 30.6986 182.976 30.4799 183.098 30.4069C183.22 30.334 183.452 30.2976 183.793 30.2976C184.5 30.2976 185.012 30.176 185.329 29.933C185.67 29.6656 185.878 29.3618 185.951 29.0215C186.024 28.6569 186.073 28.1465 186.097 27.4903L186.17 13.0161C186.17 12.287 186.085 11.7401 185.914 11.3755C185.768 10.9866 185.524 10.7071 185.183 10.537C184.841 10.3668 184.354 10.221 183.72 10.0994C183.305 10.0265 183.049 9.95361 182.952 9.8807C182.854 9.80778 182.805 9.60118 182.805 9.2609C182.805 8.96923 182.879 8.77478 183.025 8.67756C183.195 8.58034 183.452 8.53172 183.793 8.53172C185.305 8.53172 186.499 8.6411 187.377 8.85985C188.255 9.0543 189.023 9.41889 189.681 9.95361C190.364 10.4883 191.108 11.3026 191.912 12.3963L201.934 25.5215H202.043L201.97 13.0161C201.946 12.3599 201.897 11.8616 201.824 11.5213C201.751 11.1568 201.544 10.8529 201.202 10.6099C200.885 10.3425 200.373 10.2088 199.666 10.2088H199.447C199.203 10.2088 199.02 10.1724 198.898 10.0994C198.801 10.0022 198.74 9.78347 198.715 9.44319C198.715 9.22444 198.776 9.04215 198.898 8.89631C199.02 8.72617 199.178 8.6411 199.374 8.6411C200.934 8.71402 202.104 8.75048 202.885 8.75048C203.348 8.75048 204.238 8.72617 205.555 8.67756L206.323 8.6411C206.542 8.6411 206.701 8.72617 206.798 8.89631C206.92 9.04215 206.981 9.22444 206.981 9.44319C206.957 9.80778 206.883 10.0265 206.762 10.0994C206.64 10.1724 206.408 10.2088 206.067 10.2088C205.359 10.2088 204.835 10.3425 204.494 10.6099C204.177 10.8529 203.982 11.1568 203.909 11.5213C203.836 11.8616 203.787 12.3599 203.762 13.0161L203.689 31.3913C203.665 31.7073 203.36 31.8653 202.775 31.8653C202.312 31.8653 201.958 31.7073 201.714 31.3913L187.926 13.0161H187.816L187.889 27.4903C187.914 28.1465 187.962 28.6569 188.035 29.0215C188.109 29.3618 188.304 29.6656 188.621 29.933C188.962 30.176 189.486 30.2976 190.193 30.2976H190.413C190.657 30.2976 190.827 30.3462 190.925 30.4434C191.047 30.5163 191.12 30.7229 191.144 31.0632C191.144 31.282 191.083 31.4764 190.961 31.6465C190.864 31.7924 190.705 31.8653 190.486 31.8653C188.925 31.7924 187.743 31.7559 186.938 31.7559C186.451 31.7559 185.597 31.7802 184.378 31.8288L183.537 31.8653Z" fill="#F8F8FF"/>
<path d="M210.418 31.8653C210.198 31.8653 210.027 31.7924 209.905 31.6465C209.808 31.4764 209.759 31.282 209.759 31.0632C209.784 30.6986 209.857 30.4799 209.979 30.4069C210.125 30.334 210.357 30.2976 210.674 30.2976C211.381 30.2976 211.905 30.176 212.246 29.933C212.588 29.6656 212.807 29.3496 212.905 28.9851C213.002 28.6205 213.063 28.1222 213.087 27.4903V13.0161C213.063 12.3842 213.002 11.8859 212.905 11.5213C212.807 11.1568 212.588 10.8529 212.246 10.6099C211.905 10.3425 211.381 10.2088 210.674 10.2088H210.454C210.235 10.2088 210.064 10.1724 209.942 10.0994C209.845 10.0022 209.784 9.78347 209.759 9.44319C209.759 9.22444 209.808 9.04215 209.905 8.89631C210.027 8.72617 210.198 8.6411 210.418 8.6411C212.002 8.71402 213.453 8.75048 214.77 8.75048C216.233 8.75048 217.757 8.71402 219.342 8.6411C219.561 8.6411 219.72 8.72617 219.817 8.89631C219.939 9.04215 220 9.22444 220 9.44319C219.976 9.80778 219.89 10.0265 219.744 10.0994C219.622 10.1724 219.39 10.2088 219.049 10.2088C218.342 10.2088 217.818 10.3425 217.476 10.6099C217.135 10.8529 216.916 11.1689 216.818 11.5578C216.745 11.9224 216.696 12.4085 216.672 13.0161V27.4903C216.696 28.0979 216.745 28.5962 216.818 28.9851C216.916 29.3496 217.135 29.6656 217.476 29.933C217.818 30.176 218.342 30.2976 219.049 30.2976H219.269C219.512 30.2976 219.683 30.3462 219.781 30.4434C219.902 30.5163 219.976 30.7229 220 31.0632C220 31.282 219.939 31.4764 219.817 31.6465C219.72 31.7924 219.561 31.8653 219.342 31.8653C217.781 31.7924 216.269 31.7559 214.806 31.7559C213.465 31.7559 212.002 31.7924 210.418 31.8653Z" fill="#F8F8FF"/>
<path d="M97.6036 47.9952V40.0669H98.2967L103.785 46.9532H103.421V40.0669H104.25V47.9952H103.557L98.0808 41.1089H98.4444V47.9952H97.6036Z" fill="#F8F8FF"/>
<path d="M110.335 47.9952L113.971 40.0669H114.8L118.436 47.9952H117.55L114.21 40.5539H114.551L111.21 47.9952H110.335ZM111.767 45.8772L112.017 45.1977H116.641L116.891 45.8772H111.767Z" fill="#F8F8FF"/>
<path d="M126.541 47.9952V40.7918H123.746V40.0669H130.177V40.7918H127.382V47.9952H126.541Z" fill="#F8F8FF"/>
<path d="M139.775 48.0632C138.76 48.0632 137.961 47.7725 137.378 47.1911C136.795 46.6097 136.503 45.7489 136.503 44.6087V40.0669H137.344V44.5747C137.344 45.511 137.556 46.2019 137.98 46.6474C138.404 47.0929 139.003 47.3157 139.775 47.3157C140.555 47.3157 141.158 47.0929 141.582 46.6474C142.006 46.2019 142.218 45.511 142.218 44.5747V40.0669H143.036V44.6087C143.036 45.7489 142.745 46.6097 142.161 47.1911C141.586 47.7725 140.79 48.0632 139.775 48.0632Z" fill="#F8F8FF"/>
<path d="M150.255 47.9952V40.0669H153.232C153.906 40.0669 154.486 40.1764 154.971 40.3954C155.455 40.6068 155.827 40.9164 156.084 41.3241C156.349 41.7243 156.482 42.2113 156.482 42.7852C156.482 43.3439 156.349 43.8272 156.084 44.2349C155.827 44.6351 155.455 44.9447 154.971 45.1637C154.486 45.3751 153.906 45.4808 153.232 45.4808H150.721L151.096 45.0957V47.9952H150.255ZM155.687 47.9952L153.641 45.1184H154.55L156.607 47.9952H155.687ZM151.096 45.1637L150.721 44.7673H153.21C154.005 44.7673 154.607 44.5936 155.016 44.2463C155.433 43.8989 155.641 43.4119 155.641 42.7852C155.641 42.1509 155.433 41.6601 155.016 41.3128C154.607 40.9654 154.005 40.7918 153.21 40.7918H150.721L151.096 40.3954V45.1637Z" fill="#F8F8FF"/>
<path d="M162.205 47.9952L165.841 40.0669H166.67L170.306 47.9952H169.42L166.08 40.5539H166.42L163.08 47.9952H162.205ZM163.637 45.8772L163.887 45.1977H168.511L168.761 45.8772H163.637Z" fill="#F8F8FF"/>
<path d="M176.652 47.9952V40.0669H177.493V47.2703H181.947V47.9952H176.652Z" fill="#F8F8FF"/>
<path d="M190.124 48.0632C189.534 48.0632 188.966 47.9688 188.42 47.78C187.882 47.5837 187.466 47.3345 187.17 47.0325L187.5 46.3869C187.78 46.6587 188.155 46.889 188.625 47.0778C189.102 47.259 189.602 47.3496 190.124 47.3496C190.624 47.3496 191.03 47.2892 191.34 47.1684C191.658 47.0401 191.889 46.8702 192.033 46.6587C192.185 46.4473 192.261 46.2132 192.261 45.9565C192.261 45.6469 192.17 45.3978 191.988 45.209C191.814 45.0202 191.583 44.873 191.295 44.7673C191.007 44.654 190.689 44.5558 190.34 44.4728C189.992 44.3897 189.643 44.3029 189.295 44.2123C188.947 44.1141 188.625 43.9858 188.329 43.8272C188.041 43.6686 187.807 43.461 187.625 43.2043C187.451 42.94 187.363 42.5964 187.363 42.1736C187.363 41.7809 187.466 41.4223 187.67 41.0976C187.882 40.7654 188.204 40.5011 188.636 40.3047C189.068 40.1009 189.621 39.9989 190.295 39.9989C190.742 39.9989 191.185 40.0631 191.624 40.1915C192.064 40.3123 192.442 40.4822 192.76 40.7012L192.476 41.3694C192.136 41.1429 191.772 40.9768 191.386 40.8711C191.007 40.7653 190.64 40.7125 190.284 40.7125C189.806 40.7125 189.412 40.7767 189.102 40.905C188.791 41.0334 188.56 41.2071 188.409 41.426C188.265 41.6375 188.193 41.8791 188.193 42.1509C188.193 42.4605 188.28 42.7097 188.454 42.8984C188.636 43.0872 188.871 43.2345 189.159 43.3402C189.454 43.4459 189.776 43.5403 190.124 43.6233C190.473 43.7064 190.818 43.797 191.158 43.8951C191.507 43.9933 191.825 44.1217 192.113 44.2802C192.408 44.4313 192.643 44.6351 192.817 44.8918C192.999 45.1486 193.09 45.4846 193.09 45.8999C193.09 46.285 192.984 46.6436 192.772 46.9759C192.56 47.3005 192.234 47.5648 191.795 47.7687C191.363 47.965 190.806 48.0632 190.124 48.0632Z" fill="#F8F8FF"/>
<path d="M39.4533 33.8433C37.332 33.8433 35.4057 33.4058 33.6746 32.5308C31.9678 31.6315 30.6145 30.2825 29.6148 28.4839C28.6151 26.6609 28.1153 24.4248 28.1153 21.7755C28.1153 19.3206 28.6517 17.1574 29.7245 15.2858C30.8218 13.4143 32.3335 11.9681 34.2597 10.9472C36.186 9.90207 38.3926 9.3795 40.8797 9.3795C42.0988 9.3795 43.3058 9.56179 44.5005 9.92638C45.6953 10.291 46.6828 10.8622 47.4631 11.6399C48.2433 12.4177 48.6334 13.3778 48.6334 14.5202C48.6334 15.5896 48.3165 16.5133 47.6825 17.291C47.0486 18.0688 46.2073 18.4577 45.1589 18.4577C44.6468 18.4577 44.147 18.3362 43.6593 18.0931C43.1961 17.8501 42.9522 17.5341 42.9279 17.1452C42.9279 17.1209 43.0863 16.9872 43.4033 16.7442C43.7447 16.5011 44.0495 16.173 44.3177 15.7598C44.6103 15.3466 44.7566 14.8483 44.7566 14.265C44.7566 13.2441 44.3543 12.4177 43.5496 11.7858C42.745 11.1538 41.7087 10.8378 40.4408 10.8378C38.9291 10.8378 37.5636 11.2632 36.3445 12.1139C35.1253 12.9403 34.1622 14.1677 33.4551 15.7962C32.748 17.4004 32.3945 19.3206 32.3945 21.5567C32.3945 23.7199 32.7358 25.5915 33.4185 27.1713C34.1256 28.7512 35.101 29.9665 36.3445 30.8172C37.6124 31.6436 39.0754 32.0568 40.7334 32.0568C41.5136 32.0568 42.1964 32.0204 42.7816 31.9474C43.3667 31.8502 44.0007 31.6922 44.6834 31.4735V27.7547C44.6834 26.904 44.6468 26.3085 44.5737 25.9682C44.5249 25.6279 44.3299 25.3727 43.9885 25.2026C43.6715 25.0324 43.1229 24.9474 42.3427 24.9474C42.0745 24.9474 41.8794 24.9109 41.7575 24.838C41.6356 24.7408 41.5624 24.522 41.538 24.1817C41.538 23.963 41.599 23.7807 41.7209 23.6349C41.8672 23.4647 42.0623 23.3796 42.3061 23.3796C43.8422 23.4526 45.1833 23.489 46.3293 23.489C47.4265 23.489 48.7432 23.4526 50.2793 23.3796C50.4987 23.3796 50.6694 23.4647 50.7913 23.6349C50.9132 23.7807 50.9742 23.963 50.9742 24.1817C50.9498 24.522 50.8767 24.7408 50.7548 24.838C50.6328 24.9109 50.4378 24.9474 50.1696 24.9474C49.4381 24.9474 48.9138 25.0446 48.5969 25.239C48.2799 25.4335 48.0848 25.713 48.0117 26.0776C47.9385 26.4179 47.902 26.9769 47.902 27.7547V32.0568C46.4634 32.7374 45.1467 33.1992 43.9519 33.4422C42.7572 33.7096 41.2576 33.8433 39.4533 33.8433Z" fill="#F8F8FF"/>
<path d="M16.1577 2.19449L16.0274 2.46613C15.9149 2.55811 15.8081 2.6567 15.7075 2.76139C15.8443 2.56234 15.9947 2.37293 16.1577 2.19449ZM26.5127 54.6327C25.2112 54.3076 23.9422 53.8648 22.7214 53.3099C22.7236 53.2785 22.7236 53.2469 22.7214 53.2154C22.7214 51.0659 20.9916 48.8338 19.4751 47.4283C19.2737 47.2394 18.8471 47.3456 18.8708 47.6763C19.0753 49.4283 19.811 51.0763 20.9797 52.4005C18.9148 51.2508 17.0206 49.8198 15.352 48.1488C15.3693 48.095 15.3693 48.0372 15.352 47.9834C15.3795 46.5443 15.1467 45.1121 14.6648 43.7553C14.4334 42.6644 13.8409 41.6828 12.9825 40.968C12.9326 40.942 12.8769 40.9289 12.8206 40.9302C12.7643 40.9315 12.7093 40.9471 12.6607 40.9755C12.6121 41.0038 12.5716 41.044 12.5429 41.0923C12.5142 41.1406 12.4983 41.1954 12.4967 41.2515C12.446 42.9477 12.8249 44.6293 13.5985 46.141C13.326 45.8103 13.0535 45.4678 12.7929 45.1253C11.0883 42.9124 9.60426 40.5391 8.3618 38.0391C8.37116 38.0208 8.37604 38.0005 8.37604 37.98C8.37604 37.9595 8.37116 37.9392 8.3618 37.9209C8.3618 37.9209 8.3618 37.8265 8.3618 37.7792C8.41863 37.7585 8.46808 37.7215 8.50397 37.6729C10.056 35.3109 9.80723 31.9331 9.10821 29.4057C9.08636 29.344 9.04784 29.2897 8.99691 29.2485C8.94599 29.2074 8.88464 29.1811 8.81965 29.1725C8.75467 29.164 8.68857 29.1735 8.62868 29.2C8.56879 29.2266 8.51743 29.2691 8.48028 29.323C7.8572 30.3335 7.44848 31.4606 7.27935 32.6347C7.11021 33.8087 7.18426 35.0049 7.4969 36.1494C6.67221 34.201 6.0451 32.1753 5.62494 30.1025C5.45422 29.2443 5.33552 28.3766 5.26951 27.5042C5.31968 27.5196 5.37336 27.5196 5.42353 27.5042C7.72201 26.1224 8.97788 23.0398 9.35702 20.5006C9.41515 20.416 9.43719 20.3119 9.41831 20.2111C9.39942 20.1104 9.34115 20.0212 9.25631 19.9632C9.17147 19.9053 9.06701 19.8833 8.96591 19.9021C8.86482 19.921 8.77536 19.9791 8.71723 20.0636C7.12966 21.5645 5.91299 23.4121 5.16288 25.461C5.23933 22.2361 5.9519 19.0577 7.25995 16.1071C7.28642 16.1334 7.31784 16.1543 7.3524 16.1685C7.38696 16.1826 7.42399 16.1899 7.46136 16.1898C10.139 16.0599 12.6863 13.7096 14.0369 11.5601C14.0735 11.501 14.0911 11.4323 14.0876 11.3629C14.084 11.2936 14.0594 11.227 14.017 11.1719C13.9746 11.1168 13.9164 11.0759 13.8501 11.0545C13.7839 11.0332 13.7127 11.0324 13.6459 11.0523C11.6908 11.6649 9.86114 12.6208 8.24332 13.875C9.74609 11.0632 11.5667 8.43202 13.6696 6.03287C15.1269 5.49458 16.4932 4.73789 17.7216 3.78889C18.5643 2.82074 19.2083 1.69723 19.6172 0.481981C19.7713 0.115859 19.3092 -0.0967283 19.0249 0.0804277H18.9064C17.7303 0.194343 16.6277 0.702266 15.7785 1.5213C14.9491 2.53823 14.2414 3.64802 13.6696 4.82821C12.0417 6.57782 10.5819 8.47579 9.30962 10.4972C9.67691 7.61546 10.1627 4.53295 9.41625 1.69845C9.39604 1.62801 9.35572 1.56495 9.3002 1.51693C9.24468 1.46892 9.17636 1.43803 9.10355 1.42802C9.03074 1.418 8.95658 1.42931 8.8901 1.46054C8.82361 1.49178 8.76767 1.54161 8.72908 1.60397C7.66589 3.06002 7.08332 4.80966 7.06209 6.61046C7.04086 8.41126 7.58203 10.1741 8.6106 11.6546C7.22039 14.0323 6.14891 16.5815 5.42353 19.2369C5.36034 18.111 5.26556 17.0008 5.13918 15.9064C5.0681 15.1741 5.22212 13.7096 4.58233 13.19C4.51826 13.1447 4.44167 13.1204 4.36315 13.1204C4.28462 13.1204 4.20804 13.1447 4.14396 13.19C1.7744 14.6545 2.76961 20.2762 4.86668 21.5399C4.49806 23.5572 4.39451 25.6138 4.55864 27.6577C4.55191 27.6889 4.55191 27.7211 4.55864 27.7522C4.61657 28.4854 4.71546 29.2149 4.85484 29.9371C4.94962 30.445 5.0681 30.9528 5.19842 31.4488C4.64605 30.4868 4.02853 29.5635 3.35016 28.6852C2.64476 27.7018 1.63231 26.9791 0.471133 26.6302C0.40842 26.6146 0.342738 26.6152 0.280327 26.632C0.217916 26.6488 0.160849 26.6812 0.114549 26.7262C0.0682483 26.7711 0.0342521 26.8272 0.0157901 26.8889C-0.00267178 26.9507 -0.00498613 27.0161 0.00906699 27.079C0.300268 28.4801 0.967682 29.7761 1.94007 30.8286C2.91245 31.8811 4.1533 32.6506 5.53016 33.0551C5.59178 33.0749 5.65811 33.0749 5.71973 33.0551C6.59111 35.8555 7.78379 38.5464 9.27408 41.0743C8.67858 40.5672 8.0313 40.1239 7.34288 39.7516C6.41875 39.2319 5.12734 38.4406 4.04918 38.7831C3.95651 38.8107 3.87791 38.8725 3.82945 38.9559C3.781 39.0393 3.76636 39.1381 3.78853 39.2319C4.19784 40.6351 5.13922 41.8243 6.41314 42.5475C7.68706 43.2706 9.1934 43.4708 10.6129 43.1057C11.2527 44.0742 11.9398 45.0072 12.6389 45.893C13.7631 47.3373 15.0119 48.681 16.3709 49.9085C14.6024 49.0946 12.6413 48.7879 10.7077 49.0227C10.6381 49.0237 10.5703 49.045 10.5128 49.084C10.4553 49.123 10.4105 49.178 10.384 49.2421C10.3575 49.3062 10.3505 49.3767 10.3638 49.4448C10.3771 49.5128 10.4102 49.5755 10.4589 49.6251C11.4146 50.598 12.6314 51.2759 13.9635 51.5775C15.2957 51.8791 16.6868 51.7917 17.9704 51.3258C17.9938 51.3313 18.0181 51.3313 18.0415 51.3258C20.4844 53.2468 23.3806 54.5114 26.4535 54.9988C26.6312 55.0224 26.7378 54.6917 26.5127 54.6327Z" fill="#F8F8FF"/>
<path d="M62.2339 2.73777C62.1273 2.64328 62.0207 2.56061 61.9022 2.44251C61.7837 2.3244 61.8311 2.27716 61.7837 2.19449L62.2339 2.73777ZM51.5709 54.987C54.6473 54.4995 57.5473 53.235 59.9947 51.3139C59.9947 51.3139 59.9947 51.3139 60.0539 51.3139C61.322 51.7686 62.6937 51.8546 64.0089 51.5618C65.3242 51.2691 66.5289 50.6097 67.4825 49.6605C67.5312 49.611 67.5643 49.5483 67.5776 49.4802C67.5909 49.4121 67.5839 49.3417 67.5574 49.2775C67.5309 49.2134 67.4861 49.1584 67.4286 49.1194C67.371 49.0804 67.3033 49.0591 67.2337 49.0582C65.3042 48.8348 63.35 49.141 61.5823 49.9439C62.9404 48.7191 64.1855 47.3752 65.3025 45.9284C66.0015 45.019 66.6769 44.086 67.3285 43.1411C68.7362 43.4831 70.2219 43.273 71.4787 42.5543C72.7355 41.8356 73.6673 40.6631 74.0818 39.2791C74.1039 39.1822 74.0879 39.0805 74.0373 38.9949C73.9866 38.9093 73.9051 38.8462 73.8093 38.8185C72.7311 38.4642 71.4397 39.2555 70.5156 39.787C69.867 40.1809 69.2491 40.6231 68.6673 41.1098C70.1676 38.5745 71.3607 35.8707 72.2217 33.0551C72.2516 33.0681 72.2838 33.0748 72.3165 33.0748C72.3491 33.0748 72.3813 33.0681 72.4112 33.0551C73.7838 32.6585 75.0241 31.9009 76.0018 30.8619C76.9795 29.8229 77.6586 28.5407 77.9679 27.1499C77.9847 27.0877 77.9847 27.0223 77.9681 26.9601C77.9514 26.8979 77.9186 26.8412 77.873 26.7957C77.8273 26.7502 77.7704 26.7175 77.708 26.7009C77.6457 26.6842 77.58 26.6843 77.5177 26.7011C76.3405 27.0237 75.3085 27.7359 74.5912 28.7206C73.8965 29.5862 73.2555 30.4934 72.6719 31.437C72.8022 30.941 72.9088 30.4332 73.0155 29.9371C73.1867 29.2167 73.3172 28.4872 73.4065 27.7522C73.4173 27.7216 73.4173 27.6883 73.4065 27.6577C73.5667 25.6133 73.4591 23.5567 73.0866 21.5399C73.0866 21.5399 73.0866 21.5399 73.1577 21.5399C75.2429 20.229 76.2855 14.6545 73.8685 13.19C73.7973 13.1543 73.7165 13.142 73.6378 13.1547C73.5591 13.1674 73.4865 13.2046 73.4302 13.2608C72.7904 13.7923 72.9562 15.2332 72.8733 15.9654C72.743 17.0756 72.66 18.1976 72.589 19.2959C71.8564 16.628 70.777 14.0671 69.3782 11.6782C70.406 10.1947 70.9457 8.42916 70.9223 6.6263C70.899 4.82343 70.3138 3.07242 69.2479 1.61578C69.2093 1.55342 69.1533 1.50359 69.0868 1.47236C69.0204 1.44112 68.9462 1.42981 68.8734 1.43983C68.8006 1.44984 68.7323 1.48073 68.6767 1.52874C68.6212 1.57676 68.5809 1.63982 68.5607 1.71026C67.8143 4.54476 68.3 7.61546 68.6792 10.509C67.4049 8.47851 65.9411 6.57251 64.3073 4.8164C63.7489 3.62883 63.0402 2.51747 62.1984 1.50949C61.3508 0.688098 60.2474 0.179772 59.0706 0.0686173H58.9758C58.6914 -0.108539 58.2412 0.0686173 58.3834 0.470171C58.7923 1.68542 59.4363 2.80893 60.279 3.77708C61.4763 4.71433 62.8058 5.47045 64.2244 6.02106C66.3273 8.42021 68.1479 11.0514 69.6507 13.8632C68.0585 12.6015 66.2529 11.6336 64.3192 11.005C64.2524 10.9851 64.1812 10.9859 64.115 11.0073C64.0487 11.0286 63.9905 11.0696 63.9481 11.1247C63.9057 11.1797 63.8811 11.2464 63.8775 11.3157C63.874 11.385 63.8916 11.4538 63.9282 11.5129C65.267 13.6506 67.8261 16.0127 70.5037 16.1426C70.5787 16.1404 70.6504 16.111 70.7051 16.0599C72.0076 19.0123 72.72 22.1895 72.8022 25.4137C72.0564 23.3627 70.8391 21.5142 69.2479 20.0164C69.1923 19.9623 69.1205 19.9278 69.0435 19.9183C68.9664 19.9087 68.8883 19.9245 68.8212 19.9634C68.754 20.0022 68.7014 20.0619 68.6715 20.1333C68.6416 20.2047 68.636 20.284 68.6555 20.3589C69.0228 22.8981 70.2905 25.9806 72.589 27.3625C72.6393 27.3766 72.6926 27.3766 72.743 27.3625C72.677 28.2349 72.5583 29.1025 72.3875 29.9607C71.9513 32.0294 71.3247 34.0537 70.5156 36.0077C70.8294 34.8653 70.904 33.6708 70.7348 32.4984C70.5656 31.3261 70.1563 30.201 69.5322 29.1931C69.499 29.1347 69.4493 29.0874 69.3893 29.0569C69.3293 29.0265 69.2617 29.0143 69.1948 29.0218C69.1279 29.0294 69.0647 29.0564 69.0131 29.0994C68.9614 29.1424 68.9236 29.1996 68.9043 29.2639C68.2053 31.815 67.9565 35.2636 69.5204 37.5312C69.5569 37.5743 69.6011 37.6103 69.6507 37.6375C69.6507 37.6375 69.6507 37.732 69.6507 37.7792C69.638 37.8176 69.638 37.859 69.6507 37.8973C68.4066 40.3965 66.9226 42.7696 65.2196 44.9836C64.9589 45.3261 64.6983 45.6686 64.4139 45.9993C65.1709 44.4817 65.5489 42.8043 65.5158 41.1098C65.5165 41.054 65.5025 40.9991 65.4753 40.9504C65.448 40.9017 65.4085 40.861 65.3605 40.8323C65.3126 40.8037 65.2579 40.788 65.202 40.787C65.1461 40.7859 65.0909 40.7995 65.0419 40.8263C64.1477 41.5303 63.5141 42.5109 63.241 43.6136C62.7582 44.9701 62.5254 46.4025 62.5538 47.8417C62.542 47.8962 62.542 47.9525 62.5538 48.007C60.9221 49.6716 59.0635 51.0989 57.0327 52.247C58.2106 50.9286 58.9477 49.2776 59.1417 47.5228C59.1417 47.1921 58.7388 47.0858 58.5374 47.2748C57.0209 48.6802 55.3503 50.9124 55.2911 53.0619C55.261 53.0881 55.2368 53.1202 55.22 53.1564C54.0005 53.7043 52.736 54.1469 51.4406 54.4791C51.4071 54.4853 51.3752 54.498 51.3467 54.5165C51.3182 54.535 51.2936 54.5589 51.2743 54.5869C51.2551 54.6149 51.2415 54.6463 51.2345 54.6795C51.2274 54.7127 51.227 54.747 51.2332 54.7803C51.2394 54.8136 51.2522 54.8454 51.2707 54.8739C51.2893 54.9023 51.3133 54.9268 51.3413 54.946C51.3694 54.9652 51.401 54.9787 51.4342 54.9857C51.4675 54.9928 51.5019 54.9932 51.5353 54.987H51.5709Z" fill="#F8F8FF"/>
</svg>
